<?xml version="1.0" encoding="UTF-8"?>
<svg id="Layer_2" data-name="Layer 2" xmlns="http://www.w3.org/2000/svg" viewBox="0 0 399.78 405.29">
  <defs>
    <style>
      .cls-1 {
        fill: #ecaa1e;
      }
    </style>
  </defs>
  <g id="Layer_1-2" data-name="Layer 1">
    <path id="Gold" class="cls-1" d="M188.94,300.11c-38.28-3.43-71.53-24.63-91.43-55.26,1.41-.3,2.8-.68,4.17-1.12,18.97,28.51,50,48.34,85.75,52.11.47,1.44.98,2.86,1.51,4.27ZM298.17,243.78c-18.98,28.5-50.01,48.31-85.77,52.07-.47,1.44-.98,2.86-1.53,4.27,38.3-3.41,71.57-24.61,91.48-55.24-1.41-.3-2.8-.66-4.18-1.1ZM215.58,57.52l.4,4.19c32.85,4.49,61.44,22.54,79.91,48.32,1.18-.89,2.29-1.69,3.3-2.41-19.29-26.91-49.23-45.68-83.61-50.1ZM184.49,57.49c-34.49,4.38-64.53,23.2-83.85,50.2,1.02.72,2.12,1.53,3.3,2.42,18.5-25.88,47.19-43.98,80.16-48.43l.4-4.19ZM182.55,269.87c-24.09-4.57-44.92-18.47-58.57-37.79-.3.19-.6.37-.9.56-.85.54-1.71,1.07-2.57,1.61,14.45,20.56,36.68,35.28,62.37,39.86-.15-1.41-.26-2.82-.33-4.24ZM276.64,232.64c-.26-.16-.53-.33-.79-.49-13.68,19.33-34.55,33.22-58.68,37.76-.06,1.41-.16,2.82-.29,4.22,25.72-4.55,47.97-19.26,62.45-39.81-.9-.56-1.8-1.12-2.69-1.68ZM256.61,99.83c-.58,1.26-1.33,2.41-2.22,3.45,9.52,6.9,17.69,15.56,24.02,25.5.78-1.3,1.59-2.56,2.44-3.74-6.5-9.79-14.72-18.33-24.23-25.2ZM143.72,99.51c-9.74,6.95-18.15,15.64-24.76,25.63.85,1.19,1.66,2.45,2.44,3.76,6.42-10.12,14.74-18.91,24.46-25.88-.87-1.06-1.58-2.23-2.14-3.51ZM212.32,12.38c0-6.84-5.54-12.38-12.38-12.38s-12.37,5.54-12.37,12.38,5.54,12.37,12.37,12.37,12.38-5.54,12.38-12.37ZM200.23,99.32c-4.22,0-8.41.28-12.56.81.19,8.44.66,30.3.66,36.63,8.44-1.91,11.53-14.2,11.53-26.47,0,12.27,3.09,24.56,11.53,26.47,0-6.35.48-28.33.67-36.71-3.91-.48-7.85-.73-11.83-.73ZM206.6,26.23c-2.02.98-4.28,1.52-6.66,1.52s-4.51-.51-6.48-1.44l-4.84,51.3c3.85-.38,7.72-.58,11.61-.58s7.5.19,11.23.54l-4.86-51.34ZM243.13,84.8c-2.68,0-5.08,2.2-6.7,4.08-11.74-3.89-23.97-5.85-36.2-5.85s-24.45,1.96-36.2,5.85c-1.62-1.88-4.02-4.08-6.7-4.08-4.88,0-8.84,3.96-8.84,8.85v.1c0,.24.01.47.04.71v.11c.02.14.04.27.07.4.64,4.26,4.3,7.53,8.73,7.53,2.36,0,4.49-.93,6.07-2.42,11.86-4.51,24.35-6.76,36.83-6.76s24.97,2.25,36.83,6.76c1.59,1.49,3.72,2.42,6.07,2.42,4.44,0,8.1-3.27,8.74-7.53.02-.13.05-.26.06-.4.01-.04.01-.07.01-.11.02-.24.03-.47.03-.71,0-.03.01-.07.01-.1,0-4.89-3.96-8.85-8.85-8.85ZM201.58,217.7l-.8,49.74c-.15,2.39-.45,4.64-.88,6.77-.45-2.14-.78-4.42-.96-6.82l-.8-49.68c-1.68.03-4.7.08-9.5.22,0,1.3,0,2.6.02,3.9,0,.89.01,1.77.01,2.66.01.91.01,1.82.02,2.73,0,.88.01,1.76.01,2.64.08,13.07.15,26.15.22,39.22.26,5.22,1.03,11.84,2.96,19.24,2.25,8.6,5.34,15.42,7.98,20.3,2.66-4.79,5.83-11.6,8.09-20.3,1.94-7.44,2.64-14.09,2.85-19.24l.22-39.22v-2.64s.03-2.73.03-2.73v-2.64s.03-3.92.03-3.92c-4.8-.14-7.82-.19-9.5-.23ZM238.5,218.88c-6.51,2.21-13.58,3.87-21.05,4.89l-.02,2.75c10.14-1.37,19.59-3.9,27.96-7.37-2.41-.1-4.71-.19-6.89-.27ZM182.27,223.77c-7.48-1.02-14.56-2.69-21.07-4.89-2.18.08-4.47.17-6.87.27,8.37,3.47,17.82,6,27.96,7.37l-.02-2.75ZM199.86,198.96h-.28c-19.84.01-38.08,1.19-54.43,2.98.68,3.38,1.37,6.77,2.05,10.16v.02c.18.87.35,1.73.52,2.59.05.23.09.45.14.68l.03.15c.07,0,.15,0,.22-.02.27-.03,1.91-.17,3.92-.28.32-.01.64-.03.97-.04,1.8-.08,3.53-.15,5.2-.21,10.11-.41,17.98-.69,24.02-.88,13.18-.42,17.64-.42,17.64-.42,0,0,4.39,0,17.64.42,6.03.19,13.89.47,24.02.88,1.66.06,3.4.14,5.19.21.33.01.65.03.97.04,1.96.1,3.52.22,3.93.28.07.01.15.01.22.02l.03-.15.14-.68.52-2.59v-.02l2.05-10.16c-16.42-1.8-34.75-2.98-54.71-2.98ZM265,154.29s0,0-.01,0v-.05c-1.62.01-3.21.3-4.72.86-.96.35-2.96,1.09-4.81,3.02-.54.57-2.2,2.3-2.82,5.1-.24,1.07-.29,2.17-.13,3.23h0s-3.42.05-3.42.05l-3.47.08-1.61,11.04.1-.08c1.35-1.05,2.95-1.63,4.5-1.63,1.32,0,2.49.43,3.3,1.2,1.65,1.58,1.32,4.11,1.28,4.39-.33,2.19-1.97,3.48-3.55,4.72-2.53,1.99-5.14,2.55-6.14,2.69-.41.06-1.17.17-2.08.17-1.43,0-2.79-.27-4.06-.82-.81-.35-2.37-1.17-3.76-2.8-.81-.94-2.68-3.51-2.55-6.95.06-1.74.61-3.03.84-3.51.56-1.16,1.4-2.19,2.44-3.06l-4.47-5.78-1.09-1.42s0,0,0,0l-.03-.04c-.98,1.24-1.89,2.43-2.8,3.62-.91,1.19-1.82,2.38-2.79,3.69,1.06.8,1.92,1.83,2.5,3,.33.68.96,1.94.83,3.58-.14,1.86-1.13,3.1-1.73,3.85-1.45,1.81-3.23,2.61-4.19,3.03-1.11.49-3.17,1.41-5.65,1.41-.94,0-1.87-.14-2.76-.4-3.05-.92-4.76-3.11-5.49-4.04-3.07-3.92-5.6-11.36-1.62-15.61,2.06-2.2,5.08-2.67,7.25-2.67,1.12,0,2,.12,2.49.16.35-1.14,1-4.11-.54-7.17-2.26-4.48-7.16-5.15-7.67-5.17-.03-.32-.09-.67-.17-1.05-.54-2.63-1.55-5.06-3-7.28-.6-.92-1.09-1.9-1.54-2.89l-2.01-5.15-1.97,5.15c-.45,1.03-.95,2.03-1.56,2.97-1.41,2.19-2.43,4.62-2.93,7.18-.07.37-.13.73-.15,1.04-.55.06-5.45.73-7.71,5.22-1.54,3.06-.89,6.04-.49,7.21.43-.07,1.31-.19,2.43-.19,2.17,0,5.19.46,7.25,2.67,3.98,4.25,1.45,11.69-1.62,15.61-.73.94-2.45,3.13-5.49,4.04-.89.27-1.81.4-2.76.4-2.47,0-4.54-.92-5.65-1.41-1.02-.46-2.74-1.22-4.19-3.03-.59-.74-1.59-1.99-1.73-3.85-.12-1.64.5-2.9.83-3.58.58-1.17,1.44-2.2,2.51-3.07-.97-1.24-1.88-2.43-2.79-3.61-.81-1.05-1.63-2.11-2.53-3.2-.1-.13-.2-.26-.3-.39h0s-.02-.02-.03-.03l-5.5,7.3c1.03.8,1.87,1.83,2.43,2.99.23.48.78,1.78.84,3.51.13,3.44-1.74,6.01-2.55,6.95-1.39,1.63-2.96,2.45-3.77,2.8-1.26.54-2.63.82-4.06.82-.91,0-1.67-.11-2.08-.17-1-.15-3.61-.7-6.14-2.69-1.58-1.24-3.22-2.53-3.55-4.72-.04-.28-.37-2.81,1.28-4.39.81-.77,1.98-1.2,3.3-1.2s2.6.42,3.84,1.14c.23.15.47.28.69.46,0-.01,0-.03,0-.04.02.01.04.02.06.03l-.8-5.46-.85-5.5-3.42-.04-3.07.02-.27-.3c.08-1.01,0-2.01-.21-2.99-.62-2.81-2.28-4.54-2.82-5.1-1.85-1.93-3.85-2.66-4.81-3.02-1.41-.52-2.89-.81-4.44-.81-.04,0-.08,0-.12,0-.06,0-.13,0-.18,0h0s-.03.01-.05.01l8.54,38.55,1.24,5.61h.04c9.62-.95,19.4-1.68,29.06-2.17,8.7-.45,26.3-.79,26.3-.79,8.72.08,17.56.35,26.27.79,9.66.49,19.43,1.22,29.06,2.17h.04s1.21-5.49,1.21-5.49l6.7-30.47,1.82-8.2ZM274.24,259.31c.14.12.66-.15,1.08-.57.39-.39.6-.84.56-1.02-.33-1.29-1.74-2.01-2.61-3.01,0,0,5.39,3.24,5.52,4.65.12,1.41,0,1.58.09,1.66.21.19,2.7-1.02,1.85-2.29s-7.49-7.16-7.81-7.57c-.31-.41-.4-1.02-.98-1.01-.58,0-3.45.92-2.3,2.2s3.15,2.92,3.81,4.29c.65,1.37.54,2.43.79,2.66ZM247.59,282.69c0,.61-.08,1.1.21,1.28.22.14.65-.06,1.52-.45.51-.23.75-.39.91-.67.03-.06.13-.24.16-.51.09-.8-.51-1.68-.71-2.1-.82-1.7-1.43-3.24-1.49-3.66-.03-.28-.16-.73.09-1.11.17-.26.47-.44.78-.47.3-.03.45.1,1.09.39.67.31,1.01.47,1.26.47.52,0,.92-.28,1.34-.59.54-.39.85-.61.85-.89,0-.7-1.82-1.29-2.95-1.66-1.41-.46-1.61-.32-2.51-.75-.7-.34-1.51-.74-2.04-1.56-.77-1.2-.26-2.23-.9-2.54-.29-.14-.87.11-2.01.63-1.47.67-1.56.91-1.57,1.04-.02.36.42.47,1.03,1.19.41.49,1.05,1.24.92,1.99-.12.71-.88,1.19-1.49,1.58-.77.49-1.14.45-1.38.89-.29.54-.02,1.19.1,1.49.09.23.46,1.13,1.12,1.22.43.06.57-.28,1.42-.66.53-.24,1.27-.57,1.84-.37.34.12.53.4,1.12,1.9.85,2.15,1.27,3.23,1.28,3.94ZM151.2,268.35c-.18.69-.55,1.13-1.03,1.67-1.02,1.15-1.73,1.88-1.73,1.88-1.55,1.61-1.79,1.84-2.23,2.21-.55.46-.86.72-1.34,1.03-.32.21-.55.37-1.03.69-.35.24-.58.4-.78.71-.12.18-.28.44-.22.71.04.17.17.32.56.54.31.17.81.4,1.51.51.16-.1.39-.25.64-.46.38-.32.62-.62.75-.79.89-1.14.96-1.3,1.28-1.68.67-.79,1.1-1.3,1.75-1.4.9-.15,1.69.55,1.97.82-.05.37-.14.93-.32,1.59-.25.92-.45,1.18-.83,2.31-.65,1.94-.45,2.3-.34,2.45.09.11.17.14,1.06.52.33.14.87.37,1.15.49.09-.47.23-1.15.4-1.97.38-1.78.8-3.63,1.41-5.68,0,0,.24-.81.73-1.96.58-1.39.88-1.7,1.2-1.91.58-.37,1.24-.33,1.61-.28-.11-.34-.31-.84-.72-1.32-.77-.9-1.8-1.16-2.83-1.42-.59-.15-1.46-.31-2.53-.3.02.25.02.61-.08,1.03ZM121.06,246.54c-.3.44.18,1.89,1.01,2.5.1.07.48.33.91.76.49.48.69,1.02.69,1.12.03.46-.56.84-.74.96-.91.61-3.29,2.08-6.53,4.8-.23.2-.32.52-.21.8.24.59.7,1.45,1.41,1.55.35.05.73-.09,2.27-1.63,1.39-1.4,3.05-3.17,3.05-3.17.81-.86,1.75-1.33,2.34-1.12.11.04.18.1.22.14,1.28,1.15,2.09,2.49,2.79,2.35.09-.02.18-.08.18-.08s.07-.03.13-.09c.11-.13.55-2.23.55-2.23.13-.63.55-2.04.47-2.5,0-.03-.01-.05-.01-.05-.09-.38-.5-.58-.55-.6-.51-.24-1.18.11-1.59.33-.46.24-.83.55-.95.44-.03-.03-.03-.07-.03-.11,0-.3.58-1.16.88-1.83.13-.29,0-.64-.3-.77-4.46-1.99-5.71-1.99-5.99-1.57ZM124.78,93.6c.54.53,1.74,1.06,2.11,1.38,2.19,1.93,4.45,4.4,6.32,6.69.09.12.23.19.38.2l.77.08c.16.02.32-.04.44-.15l1.14-1.06c.24-.23.25-.62,0-.84-2.83-2.57-6.16-4.87-8.23-8.07-.16-.25-.48-.34-.74-.2l-2.03,1.09c-.32.17-.41.62-.15.88ZM116.33,101.95c.03.08.1.15.17.21,2.86,2.22,6.69,4.3,8.32,7.57.09.17.25.31.45.29.77-.07,1.96-1.38,2.22-1.84.87-1.57-1.67-1.65-2.54-2.45l-6.46-5.8c-.18-.16-.45-.19-.65-.05-.72.47-1.79,1.33-1.5,2.07ZM273.42,92.37c-.07.04-.3.78-.6,1.09-2.62,2.71-4.3,4.66-7.72,6.39-.06.03-.34-.03-.46.13-.13.16-.05.41-.02.51.23.75,2.31,2.56,2.66,2.86-.02-.23-.02-.6.11-1.02.2-.64.59-1.04.77-1.23,2.12-2.12,3-2.86,3-2.86,2-1.67,2.99-2.5,3.49-2.7.44-.18.82-.28.96-.63.37-.94-1.43-2.99-2.18-2.55ZM280.37,99.78c.48-.94-.67-1.91-1.24-2.63l-3.77,3.67c-.7.68-1.46,1.31-2.26,1.88l-3.29,2.32c-.66,1.11.96,1.56,1.05,2.64l9.51-7.87ZM118.45,141.44c-5.07-14.89-16.69-23.14-23.47-27.95-2.66-1.89-6.94-4.15-15.4-8.58-22.39-11.74-26.97-12.73-35.29-18.17-6.26-4.1-14.81-10.82-23.36-21.95-1.25,5.37-3.07,16.72,1.32,29.68,5.18,15.28,15.86,23.59,19.82,26.58,6.02,4.56,12.05,6.92,24.1,11.62,13.52,5.28,18.04,5.31,28.98,11.23,7.09,3.84,11.36,7.16,14.46,9.97,4.8,4.35,8.17,8.67,10.39,11.93,2.11-11.55-.1-20.13-1.55-24.36ZM108.48,162.06c-12.39-15.17-35.4-17.52-53.29-22.09-11.44-2.92-24.24-6.28-35.01-11.05-2.74-1.22-5.23-2.9-8.01-3.99,3.81,20.62,20.1,37.86,40.06,43.88,19.88,5.99,41.62-.07,60.85,9.59.94.47,5.76,3.14,6.06,3.3-.16-.43-4.51-12.02-10.66-19.64ZM114.6,190.2c-7.74-7.63-22.31-11.04-33.86-11.04-1.67,0-3.28.07-4.8.21-12.24,1.13-24.26,4.09-36.93,4.94-.51.03-1.19.05-1.86.05-1.27,0-2.52-.04-2.52-.04,0,0,.46,1.29,1.59,2.78,8.29,11.88,23.2,20.07,37.82,20.09h.05c13.16,0,26.07-6.65,39.24-6.65,1.11,0,2.22.05,3.34.15,1.91.17,6.22,1.18,6.22,1.18,0,0-2.95-5.7-8.29-11.67ZM130.77,217.04c-4.65-5.01-13.26-7.32-20.43-7.32-1.2,0-2.37.07-3.47.2-7.29.85-16.69,7.5-23.63,10.62-5,2.26-10.19,4.26-15.6,5.35-.4.07-1.24.17-1.24.17,0,0,.53,1.1,4.22,3.92,7,5.53,13.39,7.68,19.47,7.68,11.06,0,21.13-7.11,32.14-13.92,2.53-1.56,6.25-3.18,8.48-4.83.48-.36,1.15-.66,1.15-.66,0,0-.73-.81-1.09-1.21ZM332.08,225.89c-5.41-1.09-10.6-3.09-15.6-5.35-6.94-3.12-16.34-9.77-23.63-10.62-1.1-.13-2.27-.2-3.47-.2-7.18,0-15.78,2.31-20.43,7.32-.36.4-1.09,1.21-1.09,1.21,0,0,.67.3,1.15.66,2.23,1.65,5.95,3.27,8.48,4.83,11.01,6.81,21.08,13.92,32.14,13.92,6.09,0,12.47-2.15,19.47-7.68,3.69-2.82,4.22-3.92,4.22-3.92,0,0-.84-.1-1.24-.17ZM362.57,184.36c-.67,0-1.35-.02-1.86-.05-12.67-.85-24.69-3.81-36.93-4.94-1.52-.14-3.13-.21-4.8-.21-11.55,0-26.12,3.41-33.86,11.04-5.34,5.97-8.29,11.67-8.29,11.67,0,0,4.31-1.01,6.22-1.18,1.11-.1,2.23-.15,3.34-.15,13.17,0,26.08,6.65,39.24,6.65h.05c14.62-.02,29.53-8.21,37.82-20.09,1.13-1.49,1.59-2.78,1.59-2.78,0,0-1.25.04-2.52.04ZM379.54,128.92c-10.77,4.77-23.57,8.13-35.01,11.05-17.89,4.57-40.9,6.92-53.29,22.09-6.15,7.62-10.5,19.21-10.66,19.64.3-.16,5.12-2.83,6.06-3.3,19.23-9.66,40.97-3.6,60.85-9.59,19.96-6.02,36.25-23.26,40.06-43.88-2.78,1.09-5.27,2.77-8.01,3.99ZM378.79,64.79c-8.55,11.13-17.1,17.85-23.36,21.95-8.32,5.44-12.9,6.43-35.29,18.17-8.46,4.43-12.74,6.69-15.4,8.58-6.78,4.81-18.4,13.06-23.47,27.95-1.45,4.23-3.66,12.81-1.55,24.36,2.22-3.26,5.59-7.58,10.39-11.93,3.1-2.81,7.37-6.13,14.46-9.97,10.94-5.92,15.46-5.95,28.98-11.23,12.05-4.7,18.08-7.06,24.1-11.62,3.96-2.99,14.64-11.3,19.82-26.58,4.39-12.96,2.57-24.31,1.32-29.68ZM21.06,324.97c-12.04,0-21.06,9.14-21.06,21.54,0,11.68,7.77,19.97,18.8,19.97,5.87,0,10.38-2.72,14-7.02l-1.6-2c-2.97,2.84-6.76,4.3-10.85,4.3-7.59,0-13.11-6.6-13.11-15.86,0-10.17,5.69-17.61,13.23-17.61,4.45,0,7.35,2.72,8.19,7.93h2.61l.95-8.65c-3.32-1.63-7.47-2.6-11.15-2.6ZM67.51,363.56l-1.32-.39c-1.32-.39-2.2-1.12-3.02-2.35l-3.95-5.88c-1.92-2.86-3.9-4.88-5.99-5.72,5.99-.95,9.78-4.76,9.78-10.31,0-6.28-5.16-10.2-13.29-10.2h-14.28l-.16,2.13,2.36.73c1.1.34,1.48.9,1.48,2.3v26.68c0,1.4-.38,1.96-1.48,2.3l-2.36.73.16,2.13h14.06l.17-2.13-2.8-.73c-1.1-.28-1.48-.9-1.48-2.3v-10.7c2.97.45,4.94,2.58,7.96,7.45,1.87,3.03,3.51,6,4.61,8.41h9.39l.16-2.13ZM45.37,346.75v-14.85h3.02c5,0,8.13,2.86,8.13,7.34s-3.19,7.51-8.4,7.51h-2.75ZM86.34,327.98c-10.65,0-18.56,8.35-18.56,19.67s7.41,18.78,17.79,18.78,18.29-8.41,18.29-19.73-7.25-18.72-17.52-18.72ZM85.85,331.06c6.48,0,11.31,6.89,11.31,16.14s-4.67,16.14-11.2,16.14-11.48-6.89-11.48-16.14,4.72-16.14,11.37-16.14ZM152.52,330.83l-.16-2.13h-10.76l-.17,2.13,2.09.45c1.32.28,1.65.95,1.26,2.35l-3.57,13c-1.26,4.6-2.03,7.9-2.64,11.43-.49-3.53-1.21-6.89-2.47-11.43-1.37-4.93-2.69-10.09-3.9-15.24h-4.83c-1.15,4.71-2.69,10.48-4.01,15.24-1.32,4.76-2.09,8.13-2.64,11.43-.49-3.36-1.21-6.78-2.42-11.43l-3.35-12.95c-.38-1.51.05-2.13,1.32-2.41l2.09-.45-.17-2.13h-13.78l-.17,2.13,1.87.56c1.32.39,1.92,1.06,2.25,2.24l4.34,15.86c1.59,5.83,2.91,10.82,4.34,16.53h4.83c1.48-5.83,3.24-12.44,4.72-17.77.82-2.97,1.48-5.72,1.98-8.63.44,3.19,1.04,5.88,2.14,9.86,1.48,5.38,2.86,10.65,4.28,16.53h4.83c1.43-5.66,3.24-12.44,4.72-17.77l4.12-14.8c.33-1.18.88-1.85,2.36-2.24l1.48-.39ZM162.84,328.7h-8.73l-.17,2.13,2.36.73c1.1.34,1.48.9,1.48,2.3v26.68c0,1.4-.38,1.96-1.48,2.3l-2.36.73.17,2.13h11.53l.16-2.13-2.8-.73c-1.1-.28-1.48-.9-1.48-2.3v-15.92c0-4.09-.11-7.12-.49-9.98,1.15,3.36,2.69,6.45,5.11,9.98l14.88,21.75,4.72-1.18c-.22-5.04-.27-8.8-.27-17.99v-13.34c0-1.4.38-1.96,1.48-2.3l2.36-.73-.16-2.13h-11.53l-.16,2.13,2.8.73c1.1.28,1.48.9,1.48,2.3v15.24c0,4.04.11,6.95.6,10.26-1.37-3.48-2.75-6.11-4.61-8.86l-14.88-21.8ZM225.01,357.34c1.21-2.35,2.03-5.04,2.69-7.79.22-.95.55-1.29,1.48-1.57l3.35-1.01-.11-2.13h-8.07c0,3.31-.49,6.89-1.54,9.86l-8.9-10.82c-2.58-3.14-4.17-5.77-4.17-8.35,0-3.08,1.76-5.04,4.5-5.04,2.31,0,3.79,1.79,4.12,4.82h2.31l.77-6.45c-2.25-.78-4.61-1.18-6.92-1.18-6.26,0-10.16,3.7-10.16,9.14,0,2.41.99,5.04,2.97,7.9-4.94,3.14-7.63,6.78-7.63,11.27,0,6.11,4.61,10.26,11.42,10.26,4.01,0,7.58-1.57,10.16-4.09l3.13,3.87,7.74-.34.16-2.13c-2.25-.56-3.08-1.06-4.23-2.47l-3.08-3.75ZM212.65,362.33c-3.9,0-6.7-3.25-6.7-7.57,0-2.91,1.15-5.32,3.35-7.51l9.99,12.39c-2.03,1.85-4.23,2.69-6.65,2.69ZM263.49,324.97c-12.04,0-21.06,9.14-21.06,21.54,0,11.68,7.77,19.97,18.8,19.97,5.87,0,10.38-2.72,14-7.02l-1.6-2c-2.97,2.84-6.76,4.3-10.85,4.3-7.59,0-13.11-6.6-13.11-15.86,0-10.17,5.69-17.61,13.23-17.61,4.45,0,7.35,2.72,8.19,7.93h2.61l.95-8.65c-3.32-1.63-7.47-2.6-11.15-2.6ZM309.94,363.56l-1.32-.39c-1.32-.39-2.2-1.12-3.02-2.35l-3.95-5.88c-1.92-2.86-3.9-4.88-5.99-5.72,5.99-.95,9.78-4.76,9.78-10.31,0-6.28-5.16-10.2-13.29-10.2h-14.28l-.16,2.13,2.36.73c1.1.34,1.48.9,1.48,2.3v26.68c0,1.4-.38,1.96-1.48,2.3l-2.36.73.16,2.13h14.06l.17-2.13-2.8-.73c-1.1-.28-1.48-.9-1.48-2.3v-10.7c2.97.45,4.94,2.58,7.96,7.45,1.87,3.03,3.51,6,4.61,8.41h9.39l.16-2.13ZM287.81,346.75v-14.85h3.02c5,0,8.13,2.86,8.13,7.34s-3.19,7.51-8.4,7.51h-2.75ZM328.77,327.98c-10.65,0-18.56,8.35-18.56,19.67s7.41,18.78,17.79,18.78,18.29-8.41,18.29-19.73-7.25-18.72-17.52-18.72ZM328.28,331.06c6.48,0,11.31,6.89,11.31,16.14s-4.67,16.14-11.2,16.14-11.48-6.89-11.48-16.14,4.72-16.14,11.37-16.14ZM362.6,327.98c-7.63,0-12.91,4.15-12.91,10.09,0,5.04,2.97,8.63,8.95,11.04,6.26,2.52,8.73,4.48,8.73,8.18s-2.75,5.94-7.03,5.94c-5.05,0-7.91-2.91-8.79-7.68l-2.53.34.33,8.46c3.24,1.29,7.03,2.07,10.27,2.07,8.57,0,13.34-4.43,13.34-10.76,0-5.94-3.68-9.36-11.59-12.44-5.05-1.96-6.37-3.76-6.37-6.56,0-3.14,2.69-5.49,6.97-5.49,3.95,0,6.81,2.58,7.14,6.56h2.42l.71-7.62c-3.35-1.4-6.81-2.13-9.67-2.13ZM389.4,327.98c-7.63,0-12.91,4.15-12.91,10.09,0,5.04,2.97,8.63,8.95,11.04,6.26,2.52,8.73,4.48,8.73,8.18s-2.75,5.94-7.03,5.94c-5.05,0-7.91-2.91-8.79-7.68l-2.53.34.33,8.46c3.24,1.29,7.03,2.07,10.27,2.07,8.57,0,13.34-4.43,13.34-10.76,0-5.94-3.68-9.36-11.59-12.44-5.05-1.96-6.37-3.76-6.37-6.56,0-3.14,2.69-5.49,6.97-5.49,3.95,0,6.81,2.58,7.14,6.56h2.42l.71-7.62c-3.35-1.4-6.81-2.13-9.67-2.13ZM93.94,382.36c-4.62,0-7.86,2.57-7.86,6.25,0,3.34,1.87,5.38,5.34,6.78,3.47,1.4,4.91,2.54,4.91,4.68,0,1.87-1.44,3.07-3.63,3.07-2.72,0-4.52-1.7-5.14-4.51l-1.83.3.2,5.21c1.93.7,4.29,1.14,6.29,1.14,4.94,0,8.19-2.57,8.19-6.48s-2.46-5.98-6.94-7.72c-2.42-.94-3.54-1.8-3.54-3.64,0-1.74,1.51-2.94,3.67-2.94s3.77,1.47,4.09,3.78h1.74l.52-4.68c-2-.8-4.22-1.24-5.99-1.24ZM136.31,388.18l-.29-5.38h-18.08l-.29,5.38,1.7.23c.49-2.24,2-3.48,4.19-3.48h1.15v16.68c0,.8-.2,1.14-.88,1.37l-1.34.43.1,1.44h8.84l.1-1.44-1.34-.43c-.69-.23-.88-.57-.88-1.37v-16.68h1.15c2.19,0,3.7,1.24,4.19,3.48l1.7-.23ZM175.08,384.23l-.1-1.44h-7.11l-.1,1.44,1.57.43c.69.2.88.57.88,1.37v9.96c0,3.94-1.87,6.42-4.85,6.42s-4.88-2.37-4.88-6.18v-10.19c0-.8.2-1.17.88-1.37l1.57-.43-.1-1.44h-9.07l-.1,1.44,1.34.43c.69.23.88.57.88,1.37v10.26c0,5.51,3.34,8.99,8.68,8.99s8.25-3.68,8.25-9.56v-9.69c0-.8.2-1.14.88-1.37l1.34-.43ZM193.11,382.8l-.1,1.44,1.34.43c.69.23.88.57.88,1.37v15.57c0,.8-.2,1.14-.88,1.37l-1.34.43.1,1.44h9.37c6.84,0,11.69-4.61,11.69-11.13s-4.49-10.93-11.66-10.93h-9.4ZM199.83,402.71v-17.78h1.9c4.62,0,7.53,3.54,7.53,9.19,0,5.05-3.14,8.59-7.56,8.59h-1.87ZM232.27,382.8l-.1,1.44,1.34.43c.69.23.88.57.88,1.37v15.57c0,.8-.2,1.14-.88,1.37l-1.34.43.1,1.44h8.84l.1-1.44-1.34-.43c-.69-.23-.88-.57-.88-1.37v-15.57c0-.8.2-1.14.88-1.37l1.34-.43-.1-1.44h-8.84ZM270.65,382.36c-6.58,0-11.26,4.88-11.26,11.76s4.42,11.16,10.68,11.16c6.58,0,11.23-4.88,11.23-11.8,0-6.52-4.42-11.13-10.64-11.13ZM270.29,384.37c3.57,0,6.09,3.94,6.09,9.49s-2.46,9.42-5.96,9.42-6.12-3.91-6.12-9.42,2.49-9.49,5.99-9.49ZM307.51,382.36c-4.62,0-7.86,2.57-7.86,6.25,0,3.34,1.87,5.38,5.34,6.78,3.47,1.4,4.91,2.54,4.91,4.68,0,1.87-1.44,3.07-3.63,3.07-2.72,0-4.52-1.7-5.14-4.51l-1.83.3.2,5.21c1.93.7,4.29,1.14,6.29,1.14,4.94,0,8.19-2.57,8.19-6.48s-2.46-5.98-6.94-7.72c-2.42-.94-3.54-1.8-3.54-3.64,0-1.74,1.51-2.94,3.67-2.94s3.77,1.47,4.09,3.78h1.74l.52-4.68c-2-.8-4.22-1.24-5.99-1.24Z"/>
  </g>
</svg>